# Exported from Wings 3D 1.5.3
mtllib support_medium_lod1_01.mtl
o group_2_ID19_3
#150 vertices, 259 faces
v -0.67690852 1.2027167e-3 -9.5391502e-2
v -0.67690852 1.2027167e-3 -6.7122015e-2
v -0.76272779 1.2027167e-3 -9.5391502e-2
v -0.71981815 -7.4318342e-2 -6.7122015e-2
v -0.19070181 6.1511363e-2 -0.15907991
v 0.45641711 -2.3776451e-3 -0.14606018
v 0.42790360 4.1445532e-2 -0.13251941
v 0.44215992 8.4649549e-2 -7.0546935e-2
v -0.92851860 1.2027167e-3 -2.6266986e-2
v -0.94759273 9.7988850e-3 -0.10689330
v 0.60978043 -9.1273609e-2 -4.4917345e-2
v 0.32025481 -0.10545959 -4.9511984e-2
v -0.16993345 -9.6731424e-2 -4.9511984e-2
v 0.54951607 -0.14651695 -4.9511984e-2
v 0.58472918 -0.11724795 -0.10804825
v 0.58472918 -6.4520326e-2 -0.10804825
v 0.56625424 6.9728914e-2 -4.1427296e-2
v -0.16695489 -9.1549756e-2 -0.14912038
v 0.32025481 -7.6190586e-2 -0.10804825
v -1.4809915e-2 -7.0355021e-2 -0.10804825
v 0.45641711 -5.6343589e-2 -0.10552211
v 0.65584231 3.4652136e-2 3.3429447e-2
v -0.67690852 1.2027167e-3 9.5391502e-2
v -0.67690852 1.2027167e-3 6.7122015e-2
v -1.4809915e-2 0.12360976 -4.9239310e-2
v 0.65584231 3.4652136e-2 -3.3429447e-2
v -0.77720554 1.2027167e-3 0.10760972
v 5.4947221e-3 7.5045182e-2 -4.0322707e-2
v -0.94759273 9.7988850e-3 0.10689330
v 0.66876912 -4.5993277e-2 -3.5727200e-2
v -0.90944360 4.6256399e-2 0.0000000e+0
v -0.91898110 1.2027167e-3 4.6694935e-2
v 0.63483167 -7.9922915e-2 0.0000000e+0
v -0.35469767 -0.12653622 -0.11413391
v -0.19433428 -0.11390292 -0.18515933
v -0.13845788 -2.9354104e-2 -0.17409520
v -1.4809915e-2 -9.1549756e-2 -0.14912038
v -1.4809915e-2 -2.9354104e-2 -0.16303021
v -0.58789445 5.4024125e-2 0.13521054
v -0.64199326 2.3734768e-2 0.13521054
v -0.67690852 6.3680595e-2 9.5391502e-2
v -0.77720554 4.2420731e-2 0.10760972
v 0.45641711 0.10773129 -0.10156574
v -0.34743360 -2.9354104e-2 0.17409520
v -0.52408534 -7.7639924e-2 0.16302934
v -0.19070181 6.1511363e-2 0.15907991
v -0.29518880 6.1511363e-2 0.15907991
v -0.31106119 -9.8930182e-2 0.16856184
v -0.35469767 -0.12653622 0.11413391
v -0.62448830 -0.10215190 6.7122015e-2
v -0.58789445 -0.10545959 0.13520968
v -1.4809915e-2 0.11867037 -9.1268398e-2
v -1.4809915e-2 0.11867037 9.1268398e-2
v 0.45641711 0.10773129 0.10156574
v 0.42790360 4.1445532e-2 0.13251941
v 0.60486535 2.5086848e-2 0.0000000e+0
v -1.4809915e-2 -2.9354104e-2 0.16303021
v -0.58789445 -0.10545959 -0.13521054
v -0.62448830 -0.10215190 -6.7122015e-2
v 0.66876912 -4.5993277e-2 3.5727200e-2
v 5.4947221e-3 7.5045182e-2 4.0322707e-2
v 0.56625424 6.9728914e-2 4.1427296e-2
v -0.31106119 -9.8930182e-2 -0.16856270
v -1.4809915e-2 0.12360976 4.9239310e-2
v 0.44215992 8.4649549e-2 7.0546935e-2
v -1.4809915e-2 -7.0355021e-2 0.10804825
v 0.32025481 -7.6190586e-2 0.10804825
v -0.29882040 0.14651695 0.0000000e+0
v -1.4809915e-2 -9.1549756e-2 0.14911951
v -0.18064415 -0.10272590 0.16713942
v 0.58472918 -6.4520326e-2 0.10804825
v 0.58472918 -0.11724795 0.10804825
v -0.90944360 1.2027167e-3 -6.7122015e-2
v -0.64199326 2.3734768e-2 -0.13520968
v 0.32025481 -0.10545959 4.9511984e-2
v -0.34743360 -2.9354104e-2 -0.17409520
v -0.29518880 6.1511363e-2 -0.15907991
v -0.16993345 -9.6731424e-2 4.9511984e-2
v -0.58789445 5.4024125e-2 -0.13520968
v -0.77720554 4.2420731e-2 -0.10760972
v 0.60978043 -9.1273609e-2 4.4917345e-2
v 0.54951607 -0.14651695 4.9511984e-2
v -0.67690852 6.3680595e-2 -9.5391502e-2
v 0.45641711 -2.3776451e-3 0.14606018
v -0.13845788 -2.9354104e-2 0.17409520
v -2.2876367e-2 0.13341038 0.0000000e+0
v 0.45641711 -5.6343589e-2 0.10552211
v -0.52408534 -7.7639924e-2 -0.16303021
v -0.67690852 1.2027167e-3 -9.5391502e-2
v -0.67690852 1.2027167e-3 -6.7122015e-2
v -0.76272779 1.2027167e-3 -9.5391502e-2
v 5.2737609e-2 5.3091477e-2 0.19492000
v -0.61564378 5.5393573e-2 0.24964839
v 0.16734305 1.5248885e-2 0.18515933
v 0.12449594 5.9852743e-2 0.18515933
v -0.46861622 6.5053515e-2 0.23541378
v -0.46914767 3.6177893e-2 0.26894309
v -0.54509597 7.4920135e-2 0.21028612
v -0.13145086 8.4786754e-2 0.18515933
v 6.6412976e-2 -6.6839789e-2 0.26379790
v 5.2737609e-2 -1.0481438e-2 0.26209673
v -0.54509597 -0.13362834 0.21028612
v -0.61564378 -0.11410178 0.24964839
v -0.10416612 -2.9354104e-2 0.28390281
v -0.50144474 -9.0459061e-2 0.27408308
v -0.46861622 -0.12376172 0.23541378
v 0.16734305 -7.3957093e-2 0.18515933
v -0.43685060 -9.9314009e-2 0.26380311
v 5.2737609e-2 -0.11179968 0.19492000
v -0.13145086 -0.14349496 0.18515933
v 0.12449594 -0.11856182 0.18515933
v -0.54509597 4.5320277e-2 0.25832792
v -0.54509597 7.4920135e-2 -0.21028612
v -0.61564378 5.5393573e-2 -0.24964839
v -0.10416612 -2.9354104e-2 -0.28390281
v -0.46861622 6.5053515e-2 -0.23541378
v 0.12449594 5.9853611e-2 -0.18515933
v -0.43685060 4.0605801e-2 -0.26380311
v -0.50144474 3.1750853e-2 -0.27408308
v 5.2737609e-2 5.3091477e-2 -0.19492000
v -0.13145086 8.4786754e-2 -0.18515933
v 5.2737609e-2 -1.0118452e-2 -0.26432761
v 5.2737609e-2 -0.11179968 -0.19492000
v 6.6412976e-2 -5.4164804e-2 -0.26605223
v 0.16734305 1.5248885e-2 -0.18515933
v 0.16734305 -7.3957093e-2 -0.18515933
v 0.12449594 -0.11856095 -0.18515933
v -0.46861622 -0.12376172 -0.23541378
v -0.46914767 -9.4886101e-2 -0.26894309
v -0.13145086 -0.14349496 -0.18515933
v -0.54509597 -0.13362834 -0.21028612
v -0.54509597 -0.10402848 -0.25832792
v -0.61564378 -0.11410178 -0.24964839
v 0.58472918 -7.7981201e-2 -7.8751460e-2
v 0.71079908 -0.13697077 -7.8751460e-2
v 0.67032701 -9.7348848e-2 -6.8721584e-2
v 0.94759273 -0.10914676 -7.8751460e-2
v 0.94618941 -6.8791924e-2 -8.0005412e-2
v 0.67032701 -9.7348848e-2 -8.8781337e-2
v 0.94618941 -6.8791924e-2 7.7497509e-2
v 0.58472918 -7.7981201e-2 7.8751460e-2
v 0.67032701 -9.7348848e-2 6.8720716e-2
v 0.71079908 -0.13697077 7.8751460e-2
v 0.67032701 -9.7348848e-2 8.8781337e-2
v 0.94759273 -0.10914676 7.8751460e-2
v -0.67690852 1.2027167e-3 9.5391502e-2
v -0.67690852 1.2027167e-3 6.7122015e-2
v -0.67690852 -7.4318342e-2 6.7122015e-2
v -0.76272779 -7.4318342e-2 6.7122015e-2
v -0.77720554 1.2027167e-3 0.10760972
vt 2.0500000e-4 8.3358000e-2
vt 6.9600000e-4 0.25520700
vt 1.0400000e-3 0.38283400
vt 1.3170000e-3 0.58262900
vt 1.5010000e-3 0.42058400
vt 1.7270000e-3 0.55730200
vt 1.7860000e-3 0.99844600
vt 2.2740000e-3 0.12845000
vt 1.6805000e-2 7.9303000e-2
vt 1.7708000e-2 0.21698300
vt 1.8745000e-2 0.13351100
vt 3.3441000e-2 3.7262000e-2
vt 3.3529000e-2 0.15971300
vt 3.4675000e-2 0.44281100
vt 3.6907000e-2 0.58262900
vt 3.6908000e-2 0.99844600
vt 3.8413000e-2 0.56128000
vt 3.8413000e-2 0.99825600
vt 4.8341000e-2 0.19693100
vt 6.7999000e-2 0.53152800
vt 6.8357000e-2 0.17870400
vt 7.8495000e-2 0.40041100
vt 8.1322000e-2 0.41880300
vt 8.3735000e-2 0.22774500
vt 9.7034000e-2 0.48941800
vt 9.8303000e-2 0.45183700
vt 0.10078000 0.56128000
vt 0.10078000 0.85694400
vt 0.10362000 0.59968900
vt 0.10496400 0.20662900
vt 0.11194000 0.44015200
vt 0.11485800 0.73734400
vt 0.11549600 0.85137900
vt 0.13141600 0.85694400
vt 0.13141600 0.99119900
vt 0.13445900 0.53728700
vt 0.15144600 0.99751800
vt 0.16249300 4.6645000e-2
vt 0.17444300 0.85469300
vt 0.19968300 0.87859300
vt 0.20566500 0.16906900
vt 0.20599300 0.20442400
vt 0.21710300 0.85054800
vt 0.22120900 0.20431800
vt 0.24193400 0.90399300
vt 0.24201400 0.98349700
vt 0.24617600 0.53375000
vt 0.25476900 0.62207000
vt 0.25787500 0.52346700
vt 0.26661400 0.94070000
vt 0.26943700 0.59565000
vt 0.27066300 0.14246500
vt 0.28128700 0.56605200
vt 0.30024200 0.20421700
vt 0.30038700 0.15074200
vt 0.30264600 0.43319500
vt 0.31013300 0.44317700
vt 0.31702100 0.63259900
vt 0.31996400 0.60763600
vt 0.32932400 0.57931800
vt 0.32959200 0.37416100
vt 0.33053400 0.40923600
vt 0.35218000 0.25318900
vt 0.35302600 0.18523000
vt 0.35531100 0.52350000
vt 0.35708300 0.48995700
vt 0.35732800 0.46797900
vt 0.36974200 0.94070000
vt 0.36974200 0.98349700
vt 0.36974200 0.99854600
vt 0.36993800 0.41624000
vt 0.37006500 0.78828800
vt 0.37021500 0.70163200
vt 0.37035800 0.74065100
vt 0.37099100 0.69705000
vt 0.38032000 0.72819200
vt 0.38964900 0.75933500
vt 0.40650000 0.59283500
vt 0.40900900 0.24640900
vt 0.41113500 0.43789100
vt 0.41728300 0.58380500
vt 0.42927100 0.54497100
vt 0.43036300 0.73844900
vt 0.43057500 0.72870200
vt 0.43280600 0.66064300
vt 0.43452700 0.56907800
vt 0.44133400 0.64371600
vt 0.44398900 0.16340400
vt 0.44507700 0.43177500
vt 0.45177100 0.55435100
vt 0.45672900 0.59546300
vt 0.45673700 0.57478000
vt 0.45674400 0.55409700
vt 0.46582400 0.66843300
vt 0.48066700 0.48077400
vt 0.49550900 0.67502200
vt 0.49611900 0.71179600
vt 0.49963300 8.1901000e-2
vt 0.50535700 0.54357100
vt 0.51369500 0.48537100
vt 0.51799100 0.54833100
vt 0.52033800 2.9153000e-2
vt 0.52178300 0.28343100
vt 0.52519400 0.68161000
vt 0.56493100 0.24951600
vt 0.56552700 0.26558000
vt 0.57201800 0.28352100
vt 0.58124200 1.6740000e-3
vt 0.61066500 0.31724400
vt 0.61777800 0.26745800
vt 0.61815600 4.9533000e-2
vt 0.61832800 2.9153000e-2
vt 0.63750700 0.43824400
vt 0.65504700 0.23618600
vt 0.66144600 0.43642500
vt 0.66864900 0.29913100
vt 0.68658000 0.48371100
vt 0.68823800 0.27558700
vt 0.69544100 1.6740000e-3
vt 0.69544100 2.9153000e-2
vt 0.70320700 0.13476100
vt 0.71716400 8.3060000e-2
vt 0.71792500 0.41110300
vt 0.71948900 2.9320000e-3
vt 0.72592200 0.55029800
vt 0.73201800 0.14087200
vt 0.73781300 0.27498900
vt 0.73943200 0.28330900
vt 0.74099600 0.45657300
vt 0.74750500 0.55786900
vt 0.75439600 0.48537100
vt 0.75980700 0.38539200
vt 0.76155800 0.87051200
vt 0.76414600 0.38238000
vt 0.76721500 0.40341300
vt 0.77462400 0.42143400
vt 0.77704300 8.0578000e-2
vt 0.77914300 0.49816000
vt 0.78571600 0.39753000
vt 0.78627700 0.80302600
vt 0.78650600 0.37130900
vt 0.78729400 0.91619900
vt 0.78729400 0.99854600
vt 0.78827400 0.96347900
vt 0.79141600 0.12908700
vt 0.79164500 1.2593000e-2
vt 0.79165500 0.77123000
vt 0.79509400 0.83657100
vt 0.81617700 0.97761100
vt 0.81760900 0.90191200
vt 0.81912200 0.61602800
vt 0.82287800 0.12231800
vt 0.82592100 0.79253100
vt 0.83233800 0.82087600
vt 0.84187300 0.87129600
vt 0.84777200 0.87131100
vt 0.85315000 0.47754300
vt 0.86299000 0.85308800
vt 0.86654400 0.90198300
vt 0.87820400 1.6177000e-2
vt 0.89025100 0.13663200
vt 0.89134900 0.45704700
vt 0.90411400 0.44624900
vt 0.90979100 0.98497300
vt 0.91454200 0.86116900
vt 0.91548000 0.90205500
vt 0.91816000 0.97792800
vt 0.92653000 0.97088200
vt 0.93015600 0.87289800
vt 0.94042300 0.37450800
vt 0.95045800 0.99851900
vt 0.95105300 0.85310400
vt 0.95126500 0.46931100
vt 0.95374800 0.41864700
vt 0.96629700 0.50907700
vt 0.96930200 0.75673500
vt 0.96983400 0.77401600
vt 0.97234000 0.65736400
vt 0.97248000 0.65301700
vt 0.97300100 0.66520000
vt 0.97314100 0.66085300
vt 0.97981400 0.42121800
vt 0.97984100 0.44616800
vt 0.98728500 0.51328500
vt 0.98806400 0.76019100
vt 0.99636400 0.45750700
vt 0.99709600 0.29411000
vt 0.99819500 0.99863600
vt 0.99820500 0.88270800
vt 0.99866800 1.5950000e-3
vt 0.99866800 0.14386400
vt 0.99880300 0.19370800
vn 0.56760976 -0.55136854 -0.61140158
vn 0.86945685 -0.49400889 0.0000000e+0
vn 0.0000000e+0 -0.35056989 -0.93653657
vn 0.56760976 -0.55136854 -0.61140158
vn 4.5802647e-2 0.37814723 -0.92461170
vn 0.31420813 -0.19829936 -0.92841296
vn 0.83105562 0.25722999 -0.49313213
vn 0.62580982 0.76436518 -0.15526734
vn -0.81441148 -0.56749864 0.12115788
vn -0.72513197 -3.0778142e-2 -0.68792175
vn 0.72736964 -0.45106663 0.51717725
vn -8.7786967e-2 -0.99563731 3.1619637e-2
vn 0.22641802 -0.95963094 0.16686323
vn 0.28247472 -0.91495641 0.28820618
vn 0.58620659 -0.58988870 -0.55533158
vn 0.25650480 0.18595013 -0.94848713
vn 0.55508811 0.76536379 -0.32572299
vn 0.44513230 -0.80155054 -0.39921670
vn -4.5059627e-2 -0.52392485 -0.85057180
vn 0.24613420 -0.68154964 -0.68913572
vn 0.48956069 0.22133128 -0.84341140
vn 0.48035320 0.29301821 -0.82668079
vn -0.44516437 -0.44281795 0.77829361
vn -0.34144756 -0.87296811 0.34833925
vn 0.38239082 0.91404168 0.13529623
vn 0.48035320 0.29301821 0.82668079
vn 1.8076531e-2 -0.81703781 0.57630066
vn 0.33865037 0.74844602 0.57021441
vn -0.70032077 0.38845609 0.59887618
vn 0.10247628 5.0552258e-2 -0.99345009
vn -0.80613394 0.59170356 -5.9124281e-3
vn -0.50171678 -0.84648295 0.17817657
vn 0.56151213 -0.82746851 0.0000000e+0
vn 9.5329381e-2 -0.93709043 -0.33581815
vn 0.43055236 -0.90175767 -3.8180687e-2
vn 0.28613112 -0.25399872 -0.92391214
vn 0.43755473 -0.76327318 -0.47535241
vn 0.33249953 -0.18436124 -0.92490810
vn -0.23988089 0.44722190 0.86165523
vn -0.62323078 0.17265048 0.76274190
vn -0.26613304 0.55484571 0.78823819
vn -4.0569092e-2 0.52671971 0.84907037
vn 0.33762462 0.79013301 -0.51156568
vn -7.5652629e-2 9.0498276e-2 0.99301900
vn -0.14426488 -0.33934823 0.92953237
vn 4.5802647e-2 0.37814723 0.92461170
vn -4.3735541e-2 0.73834259 0.67300626
vn 6.3533478e-2 -0.85788134 0.50990499
vn 1.4584749e-2 -0.99431674 0.10545858
vn -0.53748452 -0.79288046 0.28714275
vn -0.33817950 -0.52475668 0.78119463
vn 2.4228675e-2 0.98554758 -0.16765722
vn 2.4228675e-2 0.98554758 0.16765722
vn 0.33762462 0.79013301 0.51156568
vn 0.83105562 0.25722999 0.49313213
vn 0.66166459 0.74979995 -6.5542705e-17
vn 0.33249950 -0.18436463 0.92490744
vn -0.31106961 -0.67128815 -0.67276141
vn -0.59215335 -0.69961670 -0.39986358
vn 0.10247628 5.0552258e-2 0.99345009
vn 0.62050264 0.68510477 -0.38158605
vn 0.55508811 0.76536379 0.32572299
vn 7.9781343e-2 -0.86055859 -0.50306445
vn 0.25177701 0.95454725 -0.15952392
vn 0.62580982 0.76436518 0.15526734
vn 0.24613487 -0.68154976 0.68913536
vn -4.5059627e-2 -0.52392485 0.85057180
vn -0.12063648 0.99269675 -2.5194899e-7
vn 0.50902437 -0.71756538 0.47538839
vn 0.21306054 -0.92932289 0.30160269
vn 0.25650480 0.18595013 0.94848713
vn 0.58620659 -0.58988870 0.55533158
vn -0.11542446 -0.96490181 -0.23588491
vn -0.62322725 0.17265263 -0.76274430
vn -8.7786967e-2 -0.99563731 -3.1619637e-2
vn -7.5652688e-2 9.0507564e-2 -0.99301815
vn -4.3736434e-2 0.73834276 -0.67300601
vn 0.21647834 -0.95936755 -0.18097245
vn -0.23988288 0.44722822 -0.86165139
vn -6.4867796e-2 0.41346002 -0.90820866
vn 0.72736964 -0.45106663 -0.51717725
vn 0.28247472 -0.91495641 -0.28820618
vn -0.26612928 0.55484270 -0.78824158
vn 0.31420813 -0.19829936 0.92841296
vn 9.8954697e-2 -5.6643550e-2 0.99347847
vn 0.55670359 0.83069220 -5.6194341e-3
vn 0.48956069 0.22133128 0.84341140
vn -0.14426534 -0.33934302 -0.92953420
vn -0.45610464 -0.49027524 -0.74269694
vn -0.31914191 -0.87755149 -0.35784328
vn 3.1154967e-3 -0.85977001 -0.51067194
vn 0.35058445 0.24941547 0.90270841
vn -0.15221803 0.49832059 0.85352578
vn 0.85087390 0.51522904 -0.10272604
vn 0.12149296 0.69000103 0.71353909
vn 1.1875726e-2 0.84903919 0.52819639
vn 7.3761198e-3 0.50345200 0.86399171
vn -0.27502769 0.13681182 -0.95165240
vn 5.6917264e-2 0.86028675 0.50662327
vn 0.29175120 -0.52375092 0.80035380
vn 0.46791478 0.60872404 0.64071117
vn -0.55751169 -0.40768067 -0.72317162
vn -0.21369224 -0.90995055 0.35542316
vn 9.5450519e-3 0.36416493 0.93128556
vn -7.2707720e-2 -0.12145941 0.98992990
vn 9.9963589e-3 -0.85570853 0.51736156
vn 0.22581792 -8.8998589e-2 0.97009562
vn 3.1339768e-2 -0.73796430 0.67411165
vn 0.91536634 -0.31286290 -0.25341915
vn 5.5746826e-2 -0.90979335 0.41130080
vn -6.5285995e-2 -0.51246072 -0.85622529
vn -0.48192693 -0.21827144 -0.84858943
vn -0.55751169 0.40768067 0.72317162
vn -0.21369224 0.90995055 -0.35542316
vn 4.4832755e-2 2.4312077e-2 -0.99869863
vn 9.9963589e-3 0.85570853 -0.51736156
vn -6.5285995e-2 0.51246072 0.85622529
vn 3.9521515e-2 0.71542367 -0.69757223
vn -4.4163293e-2 0.29319038 -0.95503351
vn 0.79992301 0.59614630 6.8795132e-2
vn 5.6019775e-2 0.87249106 -0.48540822
vn 0.44045246 0.54592311 -0.71271986
vn 0.58010833 -0.19878440 -0.78991081
vn 0.34828572 -0.46346297 -0.81480006
vn 0.22581792 8.8998589e-2 -0.97009562
vn 0.85087390 -0.51522904 0.10272604
vn 0.12149296 -0.69000103 -0.71353909
vn 1.1875726e-2 -0.84903919 -0.52819639
vn 1.5944523e-3 -0.49558774 -0.86855642
vn 5.6778821e-2 -0.88171477 -0.46835375
vn -0.27502769 -0.13681182 0.95165240
vn -0.48192693 0.21827144 0.84858943
vn -0.15221803 -0.49832059 -0.85352578
vn -0.87837007 -0.47673654 -3.4471652e-2
vn -0.48905596 -0.87225241 -1.6763971e-16
vn -0.25946294 -0.43380184 0.86284121
vn 0.27258969 -0.96213030 -3.8146336e-4
vn 6.0006498e-2 0.99813274 -1.1412496e-2
vn -0.25833118 -0.45222969 -0.85367049
vn 6.0007170e-2 0.99813290 -1.1395698e-2
vn -0.87841850 -0.47665077 -3.4423428e-2
vn -0.25833153 -0.45222897 -0.85367077
vn -0.48904890 -0.87225637 3.1383015e-6
vn -0.25946294 -0.43380184 0.86284121
vn 0.27259001 -0.96213021 -3.7208956e-4
vn 0.74610784 -0.23341824 0.62356958
vn 1.00000000 0.0000000e+0 0.0000000e+0
vn 0.48842491 -0.36008406 0.79484626
vn 0.0000000e+0 -0.47249333 0.88133424
vn 5.6895579e-2 -0.41198525 0.90941247
g group_2_ID19_3_material1
usemtl material1
s 1
f 1/149/1 4/159/4 3/167/3
f 2/144/2 4/159/4 1/149/1
f 5/43/5 7/133/7 6/142/6
f 5/43/5 38/68/38 36/50/36
f 5/43/5 43/140/43 7/133/7
f 5/43/5 77/33/77 43/140/43
f 6/142/6 21/143/21 20/70/20
f 6/142/6 38/68/38 5/43/5
f 7/122/7 21/145/21 6/126/6
f 7/49/7 43/53/43 8/51/8
f 8/124/8 21/145/21 7/122/7
f 8/98/8 25/9/25 17/111/17
f 8/16/8 52/4/52 25/15/25
f 9/173/9 31/175/31 10/157/10
f 9/173/9 32/173/32 31/175/31
f 9/91/9 73/93/73 32/92/32
f 10/129/10 73/136/73 9/132/9
f 10/129/10 91/163/91 73/136/73
f 11/11/11 13/121/13 12/52/12
f 11/30/11 30/24/30 26/10/26
f 11/11/11 33/1/33 13/121/13
f 11/120/11 56/108/56 33/119/33
f 12/52/12 14/21/14 11/11/11
f 12/101/12 15/131/15 14/125/14
f 12/101/12 19/100/19 15/131/15
f 12/17/12 20/28/20 19/27/19
f 13/18/13 20/28/20 12/17/12
f 13/60/13 35/90/35 18/81/18
f 13/18/13 37/34/37 20/28/20
f 13/60/13 78/60/78 35/90/35
f 14/57/14 15/71/15 11/67/11
f 15/71/15 17/99/17 11/67/11
f 15/171/15 19/185/19 16/188/16
f 16/80/16 17/99/17 15/71/15
f 16/191/16 21/161/21 17/190/17
f 17/190/17 21/161/21 8/160/8
f 17/177/17 30/158/30 11/153/11
f 17/8/17 56/13/56 26/10/26
f 18/35/18 37/34/37 13/18/13
f 19/185/19 20/186/20 16/188/16
f 20/186/20 21/189/21 16/188/16
f 20/70/20 38/68/38 6/142/6
f 22/172/22 62/177/62 60/158/60
f 22/112/22 81/120/81 56/108/56
f 23/183/23 27/162/27 24/182/24
f 23/54/23 42/41/42 27/42/27
f 23/134/23 50/128/50 40/123/40
f 24/141/24 50/128/50 23/134/23
f 25/9/25 28/38/28 17/111/17
f 25/154/25 61/148/61 28/148/28
f 25/154/25 86/155/86 61/148/61
f 26/172/26 30/158/30 17/177/17
f 26/112/26 56/108/56 11/120/11
f 27/162/27 32/135/32 24/182/24
f 27/42/27 42/41/42 29/19/29
f 28/12/28 56/108/56 17/102/17
f 28/12/28 61/12/61 56/108/56
f 29/129/29 32/135/32 27/162/27
f 29/79/29 68/192/68 31/88/31
f 31/175/31 32/173/32 29/157/29
f 31/88/31 68/192/68 10/79/10
f 32/26/32 50/65/50 24/56/24
f 32/92/32 73/93/73 50/130/50
f 33/1/33 78/121/78 13/121/13
f 33/1/33 81/11/81 78/121/78
f 34/29/34 63/36/63 49/29/49
f 34/95/34 88/113/88 63/89/63
f 35/90/35 36/87/36 18/81/18
f 35/47/35 70/47/70 48/36/48
f 35/90/35 78/60/78 70/86/70
f 36/50/36 37/69/37 18/46/18
f 36/50/36 38/68/38 37/69/37
f 37/23/37 38/25/38 20/14/20
f 39/127/39 45/139/45 44/170/44
f 39/5/39 51/6/51 45/20/45
f 39/127/39 68/192/68 40/118/40
f 40/64/40 41/55/41 23/54/23
f 40/123/40 51/116/51 39/115/39
f 40/118/40 68/192/68 41/114/41
f 41/55/41 42/41/42 23/54/23
f 41/114/41 68/192/68 42/105/42
f 42/105/42 68/192/68 29/79/29
f 43/7/43 52/4/52 8/16/8
f 43/140/43 77/33/77 52/72/52
f 44/170/44 47/187/47 39/127/39
f 45/139/45 48/174/48 44/170/44
f 45/113/45 49/95/49 48/89/48
f 45/113/45 51/117/51 49/95/49
f 46/43/46 54/140/54 47/33/47
f 46/43/46 55/133/55 54/140/54
f 46/43/46 84/142/84 55/133/55
f 46/43/46 85/50/85 57/68/57
f 47/33/47 54/140/54 53/72/53
f 47/187/47 68/192/68 39/127/39
f 48/36/48 49/29/49 35/47/35
f 49/184/49 51/138/51 50/130/50
f 49/184/49 58/138/58 34/184/34
f 49/184/49 59/130/59 58/138/58
f 49/29/49 63/36/63 35/47/35
f 49/184/49 73/93/73 59/130/59
f 50/128/50 51/116/51 40/123/40
f 50/130/50 73/93/73 49/184/49
f 52/72/52 68/32/68 25/74/25
f 52/72/52 77/33/77 68/32/68
f 53/4/53 65/16/65 64/15/64
f 53/72/53 68/32/68 47/33/47
f 54/7/54 65/16/65 53/4/53
f 55/49/55 65/51/65 54/53/54
f 55/122/55 87/145/87 65/124/65
f 56/13/56 62/8/62 22/10/22
f 56/108/56 81/120/81 33/119/33
f 57/25/57 69/23/69 66/14/66
f 57/68/57 84/142/84 46/43/46
f 57/68/57 85/50/85 69/69/69
f 58/117/58 88/113/88 34/95/34
f 59/128/59 74/123/74 58/116/58
f 59/128/59 89/134/89 74/123/74
f 59/128/59 90/141/90 89/134/89
f 60/24/60 81/30/81 22/10/22
f 61/12/61 62/102/62 56/108/56
f 61/38/61 64/9/64 62/111/62
f 61/148/61 86/155/86 64/154/64
f 62/177/62 81/153/81 60/158/60
f 62/190/62 87/161/87 71/191/71
f 63/174/63 88/139/88 76/170/76
f 64/9/64 65/98/65 62/111/62
f 64/74/64 68/32/68 53/72/53
f 64/74/64 86/73/86 68/32/68
f 65/160/65 87/161/87 62/190/62
f 66/28/66 75/17/75 67/27/67
f 66/28/66 78/18/78 75/17/75
f 66/70/66 84/142/84 57/68/57
f 66/70/66 87/143/87 84/142/84
f 67/185/67 71/188/71 66/186/66
f 67/185/67 72/171/72 71/188/71
f 67/100/67 75/101/75 72/131/72
f 68/192/68 79/127/79 74/118/74
f 68/192/68 80/105/80 10/79/10
f 68/192/68 83/114/83 80/105/80
f 68/32/68 86/73/86 25/74/25
f 69/34/69 78/18/78 66/28/66
f 69/69/69 85/50/85 70/46/70
f 70/35/70 78/18/78 69/34/69
f 71/80/71 72/71/72 62/99/62
f 71/188/71 87/189/87 66/186/66
f 72/71/72 81/67/81 62/99/62
f 72/71/72 82/57/82 81/67/81
f 73/26/73 90/56/90 59/65/59
f 73/136/73 91/163/91 90/182/90
f 74/123/74 79/115/79 58/116/58
f 74/118/74 83/114/83 68/192/68
f 74/64/74 89/54/89 83/55/83
f 75/101/75 82/125/82 72/131/72
f 76/170/76 79/127/79 77/187/77
f 76/170/76 88/139/88 79/127/79
f 77/187/77 79/127/79 68/192/68
f 78/121/78 81/11/81 75/52/75
f 79/5/79 88/20/88 58/6/58
f 80/41/80 91/44/91 10/19/10
f 81/11/81 82/21/82 75/52/75
f 83/55/83 89/54/89 80/41/80
f 84/126/84 87/145/87 55/122/55
f 89/54/89 91/44/91 80/41/80
f 90/182/90 91/163/91 89/183/89
f 92/146/92 107/152/107 94/152/94
f 92/146/92 109/146/109 107/152/107
f 93/78/93 97/76/97 96/84/96
f 93/78/93 105/75/105 97/76/97
f 93/48/93 112/58/112 103/48/103
f 94/152/94 95/137/95 92/146/92
f 94/109/94 98/2/98 95/107/95
f 94/109/94 107/109/107 98/2/98
f 95/107/95 98/2/98 92/103/92
f 96/84/96 98/85/98 93/78/93
f 96/97/96 99/147/99 98/83/98
f 97/96/97 99/147/99 96/97/96
f 97/96/97 101/179/101 99/147/99
f 97/96/97 105/94/105 101/179/101
f 98/2/98 99/63/99 92/103/92
f 98/2/98 109/103/109 102/2/102
f 98/2/98 111/107/111 109/103/109
f 98/59/98 112/58/112 93/48/93
f 99/147/99 101/179/101 92/176/92
f 100/165/100 109/156/109 101/169/101
f 100/180/100 110/147/110 109/176/109
f 101/37/101 104/39/104 100/37/100
f 101/179/101 105/94/105 104/151/104
f 101/66/101 109/82/109 92/82/92
f 102/85/102 106/84/106 103/78/103
f 102/83/102 110/147/110 106/97/106
f 102/40/102 112/45/112 98/40/98
f 103/78/103 105/75/105 93/78/93
f 103/78/103 108/77/108 105/75/105
f 103/48/103 112/58/112 102/59/102
f 104/151/104 105/94/105 100/180/100
f 105/94/105 108/104/108 100/180/100
f 106/84/106 108/77/108 103/78/103
f 106/97/106 110/147/110 108/104/108
f 107/109/107 111/107/111 98/2/98
f 108/104/108 110/147/110 100/180/100
f 109/103/109 110/63/110 102/2/102
f 109/146/109 111/137/111 107/152/107
f 113/85/113 116/84/116 114/78/114
f 113/83/113 121/147/121 116/97/116
f 113/2/113 131/2/131 120/103/120
f 113/40/113 132/45/132 131/40/131
f 114/48/114 132/58/132 113/59/113
f 114/48/114 133/48/133 132/58/132
f 115/151/115 129/96/129 119/94/119
f 116/84/116 118/77/118 114/78/114
f 116/97/116 121/147/121 118/104/118
f 117/137/117 125/152/125 120/146/120
f 117/107/117 131/2/131 125/109/125
f 118/77/118 119/75/119 114/78/114
f 118/104/118 122/178/122 119/94/119
f 119/94/119 122/178/122 115/151/115
f 119/75/119 133/78/133 114/78/114
f 120/103/120 121/63/121 113/2/113
f 120/176/120 122/178/122 121/147/121
f 120/82/120 123/82/123 122/66/122
f 120/146/120 125/152/125 123/146/123
f 120/103/120 131/2/131 117/107/117
f 121/147/121 122/178/122 118/104/118
f 122/37/122 124/37/124 115/39/115
f 123/156/123 124/165/124 122/169/122
f 123/176/123 130/147/130 124/181/124
f 123/103/123 131/2/131 130/63/130
f 124/181/124 129/96/129 115/151/115
f 124/181/124 130/147/130 129/96/129
f 125/152/125 126/152/126 123/146/123
f 125/109/125 131/2/131 126/109/126
f 126/152/126 127/137/127 123/146/123
f 126/109/126 131/2/131 127/107/127
f 127/107/127 131/2/131 123/103/123
f 128/84/128 133/78/133 129/76/129
f 129/96/129 130/147/130 128/97/128
f 129/76/129 133/78/133 119/75/119
f 130/147/130 131/83/131 128/97/128
f 131/85/131 133/78/133 128/84/128
f 132/58/132 133/48/133 131/59/131
f 134/106/134 139/110/139 136/110/136
f 135/31/135 137/62/137 136/22/136
f 135/31/135 139/22/139 137/62/137
f 136/22/136 138/61/138 134/3/134
f 136/22/136 139/22/139 135/31/135
f 137/62/137 138/61/138 136/22/136
f 137/62/137 139/22/139 138/61/138
f 138/61/138 139/22/139 134/3/134
f 140/61/140 142/22/142 141/3/141
f 140/61/140 145/62/145 142/22/142
f 141/3/141 144/22/144 140/61/140
f 142/110/142 144/110/144 141/106/141
f 142/22/142 145/62/145 143/31/143
f 143/31/143 144/22/144 142/22/142
f 143/31/143 145/62/145 144/22/144
f 144/22/144 145/62/145 140/61/140
f 146/149/146 148/150/148 147/144/147
f 146/149/146 150/164/150 148/150/148
f 148/150/148 150/168/150 149/166/149
